<?xml version="1.0" encoding="UTF-8" standalone="no"?>
<!-- Created with Inkscape (http://www.inkscape.org/) -->

<svg
   width="183.70558mm"
   height="120.43807mm"
   viewBox="0 0 183.70558 120.43807"
   version="1.1"
   id="svg5"
   inkscape:version="1.1.1 (3bf5ae0d25, 2021-09-20)"
   sodipodi:docname="zoneMap.svg"
   xmlns:inkscape="http://www.inkscape.org/namespaces/inkscape"
   xmlns:sodipodi="http://sodipodi.sourceforge.net/DTD/sodipodi-0.dtd"
   xmlns="http://www.w3.org/2000/svg"
   xmlns:svg="http://www.w3.org/2000/svg">
  <sodipodi:namedview
     id="namedview7"
     pagecolor="#ffffff"
     bordercolor="#111111"
     borderopacity="1"
     inkscape:pageshadow="0"
     inkscape:pageopacity="0"
     inkscape:pagecheckerboard="1"
     inkscape:document-units="mm"
     showgrid="false"
     inkscape:zoom="1.4142136"
     inkscape:cx="411.8897"
     inkscape:cy="359.91735"
     inkscape:window-width="1278"
     inkscape:window-height="1368"
     inkscape:window-x="1273"
     inkscape:window-y="0"
     inkscape:window-maximized="0"
     inkscape:current-layer="layer1" />
  <defs
     id="defs2" />
  <g
     inkscape:label="Layer 1"
     inkscape:groupmode="layer"
     id="layer1"
     transform="translate(-15.912569,-59.704141)">
    <path
       style="fill:#ffdb78;fill-opacity:1;stroke:none;stroke-opacity:1"
       d="m 106.76612,132.14693 c 0.0646,0.58137 -0.38758,0.99478 -0.38758,0.99478 l -0.34881,0.19378 c 0,0 0.478,0.0904 0.21962,0.50385 -0.25838,0.41341 -0.58136,0.2067 -0.6072,0.58136 -0.0258,0.37465 0.42634,0.41341 -0.50384,0.56844 -0.93018,0.15503 -1.9637,0.24546 -1.9637,0.24546 0,0 -0.23255,0.0904 -0.11628,0.25838 0.11628,0.16795 -1.88619,0.19379 -1.88619,0.19379 l -0.0775,1.25315 1.96371,0.18087 c 0,0 -0.93018,1.13688 -0.9431,1.2144 -0.0129,0.0775 0.83974,1.38234 0.83974,1.38234 0,0 -0.98185,0.23255 -0.68471,0.62012 0.29714,0.38757 1.12397,0.65887 1.12397,0.65887 0,0 0.23254,0.12919 0.42632,-0.12919 0.19379,-0.25838 0.29714,-1.02061 0.6718,-0.83974 0.37465,0.18087 1.78284,2.20917 1.757,2.54507 -0.0258,0.33589 -0.51677,0.0904 -0.54261,0.73638 -0.0258,0.64596 -0.21962,1.20148 0.21963,1.5503 0.43925,0.34881 0.15503,0.14211 -0.10335,0.49092 -0.25839,0.34882 -0.56844,0.76223 -0.52969,1.25316 0.0388,0.49092 -0.37465,0.12919 -0.38757,1.21439 -0.0129,1.08521 -0.14211,1.45986 0.0646,1.65365 0.20671,0.19379 0.50384,-0.16795 0.71055,0.29714 0.20671,0.46509 -0.19379,0.25838 -0.45217,0.67179 -0.25838,0.41341 -0.56844,0.2713 -0.16795,0.76223 0.4005,0.49093 0.37466,-0.11627 0.95602,0.41341 0.58136,0.52968 0.29714,0.93018 0.73639,0.15503 0.43924,-0.77515 0.50384,0.0517 0.43924,-0.77515 -0.0646,-0.82682 0.78807,-1.33066 0.83975,-1.3565 0.0517,-0.0258 1.22731,-0.90434 1.39526,-0.96893 0.16795,-0.0646 0.49093,-1.0077 1.04645,-0.7364 0.55552,0.27131 0.8139,0.62012 0.8139,0.62012 0,0 0.11627,0.28422 0.28422,0.41341 0.16795,0.12919 0.56845,-0.38757 1.02062,-0.45216 0.45217,-0.0646 4.58628,-0.72348 4.58628,-0.72348 l 3.46232,-0.59427 c 0,0 5.83944,-0.3359 6.02031,-0.36174 0.18086,-0.0258 0.67179,-0.38757 0.67179,-0.38757 l -0.51676,-3.28146 c 0,0 -0.46509,0.43925 0.0258,0.0517 0.49093,-0.38757 0.86013,-0.39679 0.86013,-0.39679 0,0 0.5093,-0.84344 -0.0979,-0.83052 -0.6072,0.0129 -1.20148,0.38757 -1.20148,0.38757 l 0.25838,-1.31775 c 0,0 0.16795,-0.59428 0.0388,-0.19379 -0.12919,0.4005 -0.24546,-1.82159 0.42633,-1.88619 0.67179,-0.0646 0.85266,0.16795 0.8785,-0.38757 0.0259,-0.55552 -1.22731,-1.58905 -0.20671,-1.55029 1.02062,0.0388 0.96894,-0.2713 0.90434,-0.47801 -0.0646,-0.20671 0.95602,-0.0388 1.22732,-0.21962 0.2713,-0.18087 0.2713,-0.18087 0.2713,-0.18087 0,0 0.74931,-0.24546 0.32298,-0.63304 -0.42633,-0.38757 -1.39527,-0.99477 -0.41341,-1.09812 0.98185,-0.10335 1.9637,0.11627 0.93017,-0.52969 -1.03353,-0.64595 -0.96893,-0.98185 -1.33067,-0.63303 -0.36173,0.34881 -0.12919,0.74931 -0.90433,1.0852 -0.77515,0.3359 -1.02061,0.32298 -2.23501,0.63304 -1.2144,0.31006 -0.69763,0.85266 -2.14457,0.41341 -1.44694,-0.43925 -2.06706,-0.58136 -4.21163,-1.66657 -2.14457,-1.0852 -3.79822,-5.03845 -3.79822,-5.03845 0,0 0.38757,-1.33066 -0.62011,-1.71824 -1.0077,-0.38757 -2.06706,-0.62012 -2.81637,-0.42633 -0.74931,0.19379 -1.62781,0.55552 -2.19626,0.99477 -0.56843,0.43925 -0.87849,1.29191 -0.63303,1.8216 0.24546,0.52968 0.93017,0.74931 0.46509,1.21439 -0.46509,0.46509 -1.24024,0.31006 -1.24024,0.93018 0,0.62012 0.72347,0.56844 0.25838,1.55029 -0.46508,0.98185 -1.03352,0.72347 -1.44694,-0.0517 -0.41341,-0.77515 0.25839,-0.6718 -0.56844,-0.82683 -0.82682,-0.15503 -0.85266,-0.0388 -0.85266,-0.0388 z"
       id="path1476" />
    <path
       style="fill:#ffdb78;fill-opacity:1;stroke-width:0.195312"
       d=""
       id="path19176"
       transform="scale(0.26458333)" />
    <path
       style="fill:#ffdb78;fill-opacity:1;stroke-width:0.03125"
       d=""
       id="path33745"
       transform="scale(0.26458333)" />
    <path
       style="fill:#ffdb78;fill-opacity:1;stroke-width:0.03125"
       d=""
       id="path33823"
       transform="scale(0.26458333)" />
    <path
       style="fill:#ffdb78;fill-opacity:1;stroke-width:0.03125"
       d=""
       id="path33862"
       transform="scale(0.26458333)" />
    <path
       style="fill:#ffdb78;fill-opacity:1;stroke-width:0.03125"
       d=""
       id="path33901"
       transform="scale(0.26458333)" />
    <path
       style="fill:#ffdb78;fill-opacity:1;stroke:none;stroke-width:0.264583px;stroke-linecap:butt;stroke-linejoin:miter;stroke-opacity:1"
       d="m 92.960456,127.34305 c 0,0 -1.984375,3.34037 -2.166276,3.96875 -0.181901,0.62839 0.297656,1.30638 0.297656,1.5379 0,0.23151 0.01654,1.6371 0.01654,1.6371 0,0 -1.07487,-0.7276 -1.488282,-0.66145 -0.413411,0.0661 -0.479557,0.74414 -0.529166,0.82682 -0.04961,0.0827 -0.677995,-0.13229 -1.256771,-0.71107 -0.578776,-0.57877 -0.992187,-0.67799 -1.389062,-0.41341 -0.396875,0.26458 -1.174089,-0.33073 -1.719792,0.34727 -0.545703,0.67799 -0.248047,1.81901 -0.181901,2.00091 0.06615,0.1819 0.777213,0.79375 1.008724,1.19062 0.23151,0.39688 0.727604,1.96784 0.727604,2.11667 0,0.14883 0.23151,1.67018 -1.322917,1.90169 -1.554427,0.23151 0.165365,-1.48828 -0.694531,-1.7694 -0.859896,-0.28112 -2.794661,-0.26458 -2.860807,-0.16536 -0.06615,0.0992 -0.330729,1.00872 -0.496094,0.23151 -0.165365,-0.77722 0.06615,-1.50482 -0.01654,-1.52136 -0.08268,-0.0165 -0.56224,0.0662 -0.644922,-0.0661 -0.08268,-0.1323 0.03307,-2.00092 0.03307,-2.11667 0,-0.11576 -0.181901,-0.59531 -0.810287,-0.69453 -0.628385,-0.0992 -0.992187,-0.16537 -1.223698,0.0331 -0.23151,0.19844 -0.06615,0.39688 -0.562239,0.39688 -0.496094,0 -3.208073,-0.16537 -3.208073,-0.16537 0,0 0.198437,-0.49609 -0.760677,-0.39687 -0.959115,0.0992 -1.256771,0.33073 -1.620573,0.39687 -0.363802,0.0661 -0.79375,0 -0.892969,-0.3638 -0.09922,-0.3638 0.03307,-0.42995 -0.330729,-0.46302 -0.363802,-0.0331 -0.992188,-0.0992 -0.992188,-0.0992 0,0 -0.06614,-0.3638 -0.09922,-0.59531 -0.03307,-0.23151 -0.79375,-0.23151 -0.06615,-0.3638 0.727604,-0.1323 0.959114,-0.1323 0.859896,-0.56224 -0.09922,-0.42995 -0.132292,-0.62839 -0.396875,-1.19063 -0.264584,-0.56224 0.297656,-0.62838 -0.727604,-0.82682 -1.025261,-0.19844 -0.959115,-0.46302 -1.389063,-0.0661 -0.429948,0.39688 -0.79375,0.23151 -0.892969,0.82682 -0.09922,0.59532 -0.46302,0.69454 0.03307,1.2237 0.496094,0.52917 0.760677,0.46302 0.959115,0.95912 0.198437,0.49609 0.132292,0.95911 0.23151,1.38906 0.09922,0.42995 0.892969,0.7276 1.124479,0.99219 0.231511,0.26458 0.56224,0.62838 0.661459,0.76067 0.09922,0.1323 0.363802,0.59532 0.363802,0.59532 0,0 -0.79375,0.66146 -1.157552,0.99218 -0.363802,0.33073 0.330729,1.52136 -0.297656,1.5875 -0.628386,0.0661 -0.79375,-0.52916 -1.620573,-0.66145 -0.826823,-0.1323 -1.389063,-0.56224 -1.554427,-0.0662 -0.165365,0.49609 -0.198438,1.02526 -0.496094,0.62839 -0.297656,-0.39688 0.165364,-1.32292 -0.529167,-1.42214 -0.694531,-0.0992 -1.058333,0.26458 -1.223698,-0.62839 -0.165364,-0.89296 0.363802,-1.71979 -0.595312,-1.71979 -0.959115,0 -1.5875,0.52917 -2.711979,-0.29765 -1.12448,-0.82683 -0.496094,-1.52136 -1.488282,-1.52136 -0.992187,0 0.595313,0.39688 -0.264583,0.62839 -0.859896,0.23151 -1.058333,-0.59531 -1.422135,0.0992 -0.363802,0.69453 0.132291,1.22369 -1.025261,1.32291 -1.157552,0.0992 -1.951302,1.05834 -1.951302,1.05834 0,0 0.992188,1.68672 0.363802,1.75286 -0.628385,0.0661 -2.083593,1.12448 -1.124479,1.52136 0.959115,0.39687 2.546615,0.33072 2.348177,0.85989 -0.198437,0.52917 -3.770312,1.05833 -4.034896,1.45521 -0.264583,0.39687 1.91823,3.20807 2.480469,2.8112 0.56224,-0.39688 0.529167,-1.98438 0.959115,-1.91823 0.429948,0.0661 -0.264584,1.12448 0.661458,1.15755 0.926042,0.0331 0.661458,-1.45521 1.951302,-0.82682 1.289844,0.62838 2.050521,1.81901 2.315104,0.95911 0.264584,-0.85989 -0.529166,-1.42213 -0.23151,-2.14974 0.297656,-0.7276 0.03307,-0.95911 0.959114,-0.99218 0.926042,-0.0331 0.595313,-0.36381 1.488282,-0.56224 0.892968,-0.19844 1.455208,-0.23151 2.414322,-0.23151 0.959115,0 0.79375,-1.35599 1.256771,-0.66146 0.463021,0.69453 -0.297656,0.69453 0.727604,1.15755 1.025261,0.46302 0.33073,1.05833 0.79375,1.55443 0.463021,0.49609 1.058334,-0.0992 1.058334,0.59531 0,0.69453 -0.56224,0.3638 -1.488281,0.76068 -0.926042,0.39687 -1.058334,1.02526 -0.760678,1.22369 0.297657,0.19844 0.79375,0.69453 1.554428,0.26459 0.760677,-0.42995 1.554427,-1.02526 1.322916,-0.4961 -0.23151,0.52917 -1.422135,0.29766 -1.223698,1.05834 0.198438,0.76067 1.322917,0.39687 -0.132291,1.02526 -1.455209,0.62838 -1.686719,1.52135 -2.116667,1.78593 -0.429948,0.26459 -1.190625,0.0662 -0.826823,0.92605 0.363802,0.85989 0.892969,1.48828 0.694531,1.85208 -0.198437,0.3638 -0.595312,0.19844 -0.198437,1.02526 0.396875,0.82682 1.124479,2.18281 0.23151,2.38125 -0.892969,0.19844 -1.223698,-2.4474 -1.686719,-2.48047 -0.46302,-0.0331 -0.926041,0.76068 -1.124479,-0.0661 -0.198437,-0.82683 0.429948,-1.42214 -0.529166,-1.15756 -0.959115,0.26459 -1.785938,-1.19062 -1.752865,0.56224 0.03307,1.75287 0.496094,1.78594 0.529167,2.4474 0.03307,0.66146 -0.595313,0.79375 -0.165365,1.48828 0.429948,0.69453 2.083594,0.76068 -0.09922,1.25677 -2.182812,0.49609 -3.108854,0.92604 -3.108854,0.92604 l 1.025261,2.11667 9.425781,-2.84427 -1.389063,-2.94349 c 0,0 -0.529166,-2.8112 -0.529166,-3.00964 0,-0.19843 -0.661459,-0.69453 0.959114,-1.05833 1.620573,-0.3638 2.447396,0.8599 2.447396,-0.19844 0,-1.05833 0.463021,-1.19062 0.694531,-0.82682 0.231511,0.3638 0.165365,1.25677 0.79375,0.46302 0.628386,-0.79375 0.959115,-1.35599 0.628386,-2.3151 -0.330729,-0.95912 0.429948,-0.29766 0.165364,-1.09141 -0.264583,-0.79375 -0.562239,-0.7276 0.429948,-1.09141 0.992188,-0.3638 1.190625,-0.52916 0.992188,-1.22369 -0.198438,-0.69454 -0.79375,-0.1323 0,-0.95912 0.79375,-0.82682 1.719791,-1.45521 2.083593,-1.52135 0.363803,-0.0661 1.488282,-0.95912 1.256771,-0.62839 -0.23151,0.33073 -2.149739,1.25677 -1.885156,1.98438 0.264583,0.7276 -1.157552,1.05833 0.09922,1.15755 1.256771,0.0992 1.322916,-0.39688 1.653646,0.3638 0.330729,0.76068 0.661458,1.05833 0.859895,0.46302 0.198438,-0.59531 -0.264583,-1.25677 0.529167,-1.19062 0.79375,0.0661 1.521354,-0.95912 1.620573,-0.0992 0.09922,0.85989 0.132292,1.55442 0.595312,0.92604 0.463021,-0.62839 -1.157552,-1.02526 0.992188,-0.8599 2.149739,0.16537 3.009635,0.39688 3.505729,0.23151 0.496094,-0.16536 1.190625,-2.05052 1.157552,-1.19062 -0.03307,0.85989 -0.859896,1.9513 0,1.65364 0.859896,-0.29765 0.496094,-0.76067 0.859896,-1.52135 0.363802,-0.76068 0.03307,-1.9513 0.56224,-0.76068 0.529166,1.19063 0.562239,0.0992 0.628385,1.68672 0.06615,1.5875 -1.223698,1.35599 0.264583,2.64584 1.488281,1.28984 0.363802,1.9513 1.852084,2.08359 1.488281,0.13229 3.175,0.26458 3.604947,0.16536 0.429948,-0.0992 0.231511,-0.76067 0.165365,-0.95911 -0.06615,-0.19844 -1.223698,-0.79375 -0.727604,-1.2237 0.496094,-0.42995 2.149739,-1.19062 2.447396,-1.35599 0.297656,-0.16536 0.959114,-0.76068 0.926041,-0.92604 -0.03307,-0.16536 -1.455208,-1.62057 -2.38125,-1.9513 -0.926041,-0.33073 -1.5875,-0.29766 -2.116666,-0.82682 -0.529167,-0.52917 -0.859896,-1.5875 -0.396875,-1.91823 0.463021,-0.33073 0.628385,0.23151 0.859896,-0.4961 0.23151,-0.7276 0.09922,-0.76067 -0.463021,-0.92604 -0.56224,-0.16536 -0.892969,-0.7276 -0.56224,-1.2237 0.330729,-0.49609 0.165365,-0.52916 0.429948,-1.12448 0.264583,-0.59531 0.628385,-0.85989 0.463021,-1.38906 -0.165365,-0.52917 -0.694531,-0.89297 -0.297656,-1.42213 0.396875,-0.52917 0.859895,-0.92605 1.81901,-2.24896 0.959115,-1.32292 1.686719,-0.0992 0.727604,-1.45521 -0.959114,-1.35599 -0.859896,-1.75287 -0.859896,-1.75287 z"
       id="path36610" />
    <text
       xml:space="preserve"
       style="font-style:normal;font-weight:normal;font-size:2.11667px;line-height:1.25;font-family:sans-serif;fill:#ffffff;fill-opacity:1;stroke:none;stroke-width:0.264583"
       x="68.019653"
       y="138.88235"
       id="text3256-7-8"><tspan
         sodipodi:role="line"
         id="tspan3254-6-5"
         style="font-size:2.11667px;fill:#ffffff;stroke-width:0.264583"
         x="68.019653"
         y="138.88235">Green Island</tspan></text>
    <path
       style="fill:#0c88d0;fill-opacity:1;stroke:none;stroke-width:0.264583px;stroke-linecap:butt;stroke-linejoin:miter;stroke-opacity:1"
       d="m 112.4404,90.665186 c -0.52916,0.264583 -1.65364,0.992187 -1.78593,1.389062 -0.13229,0.396875 -0.66146,0.992187 -0.8599,1.455208 -0.19844,0.463021 0.19844,1.389063 0.19844,1.389063 0,0 0.79375,-0.529167 1.5875,0.396875 0.79375,0.926041 2.57969,3.307291 2.77812,3.770312 0.19844,0.463019 0,0.926039 -0.66145,1.918234 -0.66146,0.99219 0.79375,1.12448 0.79375,1.12448 0,0 0.66145,0.13229 0.46302,0.39687 -0.19844,0.26459 -1.5875,0.8599 -1.98438,0.72761 -0.39687,-0.13229 -0.7276,-0.39688 -0.7276,-0.39688 0,0 1.65364,0.72761 0.79375,1.65365 -0.8599,0.92604 -1.65365,1.98437 -1.91823,1.25677 -0.26459,-0.7276 -0.59531,-1.12448 -0.8599,-1.12448 -0.26458,0 -1.98437,0.0661 -1.98437,0.0661 0,0 -0.72761,-0.79375 -0.92604,-1.12448 -0.19844,-0.33073 0.13229,-1.32292 -0.8599,-1.45521 -0.99219,-0.13229 -1.91823,-0.7276 -1.91823,-0.7276 0,0 1.45521,-0.92605 2.24896,-0.99219 0.79375,-0.0661 0.33073,0.0661 1.25677,0.26458 0.92604,0.19844 1.45521,0.26458 1.98437,-0.33073 0.52917,-0.595315 0.66146,-1.455211 0.66146,-1.455211 0,0 -0.13229,-1.455209 -1.12448,-1.984375 -0.99218,-0.529167 -2.24895,0.859896 -2.84427,1.322916 -0.59531,0.463021 -2.57968,2.24896 -2.84427,2.38126 -0.26458,0.13229 -0.66146,-0.859905 -0.85989,0.33072 -0.19844,1.19063 -0.92605,1.32292 -0.92605,1.32292 l -1.05833,-1.05833 c 0,0 -0.39687,0.39687 -1.389062,1.25677 -0.992187,0.85989 -0.661458,1.19062 -2.050521,0.66146 -1.389062,-0.52917 -0.595312,-0.52917 -0.595312,-0.52917 l -1.455209,0.92604 -1.25677,-0.39687 -1.256771,-0.13229 c 0,0 1.190625,-1.05834 0.396875,-1.25678 -0.79375,-0.19843 -1.389063,0.79375 -1.389063,0.79375 0,0 -0.859896,-0.79375 -2.050521,-0.85989 -1.190624,-0.0661 -0.264583,1.32292 -0.264583,1.32292 0,0 0.661458,0.33072 -0.06615,0.7276 -0.727604,0.39687 -1.5875,0.46302 -1.058333,0.79375 0.529167,0.33073 2.182812,0.33073 2.182812,0.33073 0,0 0.992188,-1.05833 1.521355,-0.52917 0.529166,0.52917 0,1.71979 0.330729,1.98438 0.330729,0.26458 0.529166,1.38906 0.132291,1.52135 -0.396875,0.13229 -0.859895,0.8599 -0.264583,1.32292 0.595313,0.46302 2.315104,0.66146 2.579688,0.66146 0.264583,0 0.198437,-1.19063 0.926041,-1.19063 0.727604,0 1.256771,0.46302 1.852084,1.05833 0.595312,0.59532 1.653645,2.11667 0.79375,2.18282 -0.859896,0.0661 -1.455209,-0.39688 -1.852084,0.13229 -0.396875,0.52917 -0.727604,1.65364 -0.992187,1.65364 -0.264584,0 -0.330729,0.26459 -0.79375,0 -0.463021,-0.26458 -0.396875,-0.66145 -0.79375,-0.99218 -0.396875,-0.33073 -1.785938,-0.46302 -1.785938,-0.46302 0,0 0.529167,-1.05834 -0.661458,-0.79375 -1.190625,0.26458 -0.926042,1.12448 -2.248958,1.19062 -1.322917,0.0661 -2.976563,1.98438 -3.175,2.38125 -0.198438,0.39688 -1.058334,2.05052 -0.330729,2.4474 0.727604,0.39687 2.116666,0.7276 2.645833,0.52916 0.529166,-0.19843 0.529166,-0.59531 1.256771,-0.59531 0.727604,0 0.661458,-0.19844 1.719791,0 1.058334,0.19844 1.521354,0.46302 2.182813,-0.13229 0.661458,-0.59531 1.719791,-0.39688 1.124479,-1.19063 -0.595313,-0.79375 -1.852083,-1.12447 -0.79375,-1.19062 1.058333,-0.0661 1.190625,-0.46302 2.116667,-0.46302 0.926041,0 0.926041,0.33073 1.190625,1.25677 0.264583,0.92604 -0.661459,1.71979 -0.529167,2.38125 0.132292,0.66146 1.521354,1.05833 -0.198438,1.19062 -1.719791,0.1323 -3.373437,-0.92604 -3.63802,-0.39687 -0.264584,0.52917 0.132291,1.52135 0.132291,1.52135 l 0.79375,-1.05833 c 0,0 -0.661458,0.52917 0.727604,0.79375 1.389063,0.26458 2.050521,-0.39687 1.852084,0.59531 -0.198438,0.99219 -1.455209,0.72761 -1.5875,1.32292 -0.132292,0.59531 2.116666,1.19062 1.653646,1.65365 -0.463021,0.46302 -1.455209,1.98437 -1.455209,1.98437 0,0 0.132292,-1.32292 -0.529166,-0.26458 -0.661459,1.05833 -1.09142,2.81132 -1.09142,2.81132 l 0.01814,0.43789 0.575449,0.98736 0.763129,1.03312 0.131574,-0.14339 c 0,0 0.264583,2.44739 -0.396875,3.175 -0.661459,0.7276 -2.976563,4.46484 -2.976563,4.7625 0,0.29765 1.455208,0.0331 1.256771,0.85989 -0.198438,0.82683 -0.06615,1.38907 0.826823,0.89297 0.892969,-0.49609 1.984375,-1.38906 1.355989,-0.39687 -0.628385,0.99219 -1.02526,1.25677 -0.694531,1.65364 0.330729,0.39688 0.992188,0.56224 1.35599,0.56224 0.363802,0 0.959114,-0.82682 0.892968,0 -0.06614,0.82683 -1.587499,0.4961 -0.661458,1.12448 0.926042,0.62839 1.620573,0.26459 1.289844,0.89297 -0.330729,0.62839 -0.859896,3.24115 -0.992188,3.24115 -0.132291,0 -0.826822,-1.48828 -0.826822,-1.48828 0,0 -2.612761,1.32291 -2.678907,1.48828 -0.06615,0.16536 0.79375,1.68672 1.157552,1.78593 0.363802,0.0992 1.5875,-0.16536 2.546615,-0.0992 0.959114,0.0661 0.330729,0.26458 1.852083,-0.23151 1.521354,-0.4961 1.488281,-0.66146 1.488281,-0.66146 0,0 0.165369,0.42995 0.760679,1.38906 0.59531,0.95911 1.62057,1.55443 1.25677,2.34818 -0.3638,0.79375 -0.19843,1.02526 -1.0914,1.45521 -0.892976,0.42994 -1.521361,-0.16537 -1.223705,0.85989 0.297656,1.02526 0.363802,0.99219 1.223705,0.92604 0.85989,-0.0661 0.79375,-0.26458 1.78593,-0.13229 0.99219,0.13229 1.02526,0.0992 1.88516,-0.26458 0.8599,-0.3638 1.25677,0.82682 1.35599,-0.39688 0.0992,-1.2237 -0.008,-1.56029 0.19844,-1.81901 0.21592,-0.27114 0.44437,-0.34733 0.34844,-0.31135 l -0.32872,-0.46486 c 0,0 -1.00055,-0.39955 -1.13285,-0.69722 -0.0706,-0.15889 0.31348,-0.46761 0.39343,-0.57353 0.0698,-0.0925 -0.17556,0.01 -0.0727,-0.0229 0.25191,-0.0804 0.7157,-0.26763 0.43299,-0.45299 -0.0376,-0.0247 -0.0793,-0.25823 -0.11331,-0.27994 -0.75094,-0.47911 -0.6405,-0.0814 -0.57154,-1.6094 0.0264,-0.58546 -0.0471,-0.58179 0.1844,-1.11095 0.23151,-0.52917 0.26458,-0.92605 0.56224,-1.38907 0.1873,-0.29137 0.50575,-0.19942 0.42221,-0.61075 -0.0492,-0.24232 -0.50899,-0.55242 -0.48836,-1.50591 0.0102,-0.47342 1.12447,0.0661 0.66145,-0.72761 -0.46302,-0.79375 -1.61489,-2.79583 -2.04484,-2.63047 -0.42995,0.16537 -0.91589,1.00426 -0.91589,1.00426 v 0 l -1.1659,-0.72677 c 0.97934,-1.00094 0.83424,-0.38476 0.65402,-0.63922 -0.60724,-0.85743 -0.9107,-1.39559 -0.44485,-1.71119 0.40652,-0.27541 0.30708,-0.476 0.6486,-0.72281 0.19225,-0.13894 -0.38666,-0.44857 -1.78535,-0.25011 -0.29782,0.0422 -0.14077,-0.77674 -0.12864,-1.25964 0.79182,0.0263 1.16599,0.0618 1.92123,-0.16213 0,0 -0.0185,-0.10007 -0.0188,-0.19027 -1.3e-4,-0.0375 0.16628,-0.0931 0.29824,-0.10511 1.20137,-0.10969 2.62908,-0.21346 2.38308,-0.50159 -0.0757,-0.0887 -0.0883,-0.16475 -0.0969,-0.22995 -0.0222,-0.16654 0.11772,-0.26227 0.30743,-0.31683 0.95815,-0.27556 -0.15698,-1.40629 0.0819,-0.98244 0.1674,0.29704 0.5355,-0.14807 0.68576,-0.6219 0.0465,-0.1466 0.0273,-0.29969 0.0321,-0.42962 0,0 0.48242,-0.0222 0.81856,0.0337 0.0758,0.0126 0.18515,0.0356 0.24087,0.0407 0.0386,0.004 0.0321,-0.0209 0.0508,0.0165 0.16537,0.33073 0.36393,1.47744 0.8931,1.41129 0.0456,0.0181 -0.0456,-0.0181 0,0 0.0838,0.0333 0.14737,0.0619 0.23905,0.0574 0.47892,-0.023 1.01056,-0.56418 0.68687,-1.00576 -0.39106,-0.53349 -0.13229,-0.46302 -0.76068,-1.68672 -0.62838,-1.2237 -2.34817,-3.77031 -2.77812,-4.00182 -0.42995,-0.23151 -1.48828,-1.12448 -1.62057,-1.28985 -0.1323,-0.16536 0.95911,-5.25859 1.22369,-5.55625 0.26459,-0.29765 0.89297,-1.88515 1.25677,-2.01745 0.36381,-0.13229 2.38125,-0.95911 2.87735,-1.0914 0.49609,-0.13229 2.18281,-1.15755 2.3151,-1.42214 0.13229,-0.26458 1.45521,-2.14974 1.48828,-2.34817 0.0331,-0.19844 0.76068,-1.52136 0.76068,-1.52136 0,0 0.46302,0.8599 0.89297,0.0992 0.42995,-0.76068 0.76068,-2.28203 0.92604,-2.41432 0.16537,-0.13229 0.95912,-1.28985 1.09141,-1.78594 0.13229,-0.49609 0.52916,-2.01745 0.42995,-2.28203 -0.0992,-0.26459 0.52916,-0.95912 -0.46303,-1.28985 -0.99218,-0.33072 -1.85208,-0.46302 -1.52135,-1.32291 0.33073,-0.8599 1.48828,-2.21589 1.55443,-2.57969 0.0661,-0.363805 0.29765,-0.992192 0.56224,-1.488286 0.26458,-0.496094 0.99218,-1.157552 1.12448,-1.554427 0.13229,-0.396875 0.59531,-0.694531 0.16536,-0.694531 -0.42995,0 -0.69453,0.429948 -1.15755,0.496094 -0.46302,0.06615 -0.49609,0.330729 -1.09141,-0.198438 -0.59531,-0.529167 -0.85989,-1.223698 -1.45521,-1.289844 -0.59531,-0.06615 -0.79375,0.56224 -1.05833,-0.165364 -0.26458,-0.727604 -0.19844,-1.951302 -0.39687,-2.14974 -0.19844,-0.198437 -0.16537,-0.132291 -0.99219,-0.926041 -0.82682,-0.79375 -0.69453,-1.455209 -0.69453,-1.455209 z"
       id="path71863"
       sodipodi:nodetypes="csscssscsscssscsscccscssssccssccccscccsscssssssscsssscscssssssscsssssccsssscscccccssssssssssscsscscsssscssssccsssssssssssscccsssscsssssssscssscssssssssssscsssssssssssssssscc" />
    <path
       style="fill:#0c88d0;fill-opacity:1;stroke:#0c88d0;stroke-width:0.264583px;stroke-linecap:butt;stroke-linejoin:miter;stroke-opacity:1"
       d="m 127.68802,91.4162 c -0.11693,0 -1.07577,1.145918 -1.61364,1.520095 -0.53788,0.374176 -2.64263,1.356391 -2.82972,1.637024 -0.18709,0.280633 -0.0468,1.075762 -0.42095,1.333008 -0.37418,0.257247 -1.0056,-0.140316 -1.33301,0.491109 -0.3274,0.631423 -1.1693,2.198291 -1.54348,2.50231 -0.37418,0.30402 -0.6782,1.824124 -0.70158,1.987824 -0.0234,0.1637 -1.05237,0.67819 -1.0056,1.19269 0.0468,0.51449 1.26285,1.70718 1.49671,1.75395 0.23386,0.0468 1.21607,0.70159 1.8475,0.86529 0.63142,0.1637 1.09914,-0.0702 1.05237,0.58465 -0.0468,0.65481 0.11693,0.79513 0.28064,0.81851 0.1637,0.0234 0.93544,-0.56126 1.12253,-0.39756 0.18708,0.1637 0.60803,0.60804 0.4911,0.70158 -0.11693,0.0936 -0.72496,0.32741 -0.18709,0.42095 0.53789,0.0935 0.84191,-0.65481 0.84191,-0.65481 0,0 0.28063,0.0935 0.79512,0.32741 0.51449,0.23386 1.12253,0.1637 1.21608,0.53788 0.0935,0.37418 -0.16371,0.74835 0.23386,0.86528 0.39756,0.11693 0.63142,-0.46772 0.91206,-0.4911 0.28063,-0.0234 0.44433,0.0468 0.60803,0.21047 0.16371,0.1637 0.53788,-0.0234 0.8419,-0.18709 0.30402,-0.1637 0.37418,0.0234 0.70159,0.0234 0.3274,0 0.42095,-0.0702 0.28063,-0.37417 -0.14032,-0.30402 0,-0.65481 0.37417,-0.88868 0.37418,-0.23386 0.46773,-0.74835 0.70159,-0.37417 0.23386,0.37417 0.11693,0.74835 0.53788,0.72497 0.42095,-0.0234 -0.0468,-0.3508 0.74835,-0.42095 0.79513,-0.0702 1.26285,0.14031 0.86529,-0.42095 -0.39757,-0.56127 -0.65481,-0.70159 -1.19269,-0.6782 -0.53788,0.0234 -1.02899,-0.70158 -0.14032,-0.77174 0.88867,-0.0702 0.88867,0.39756 1.5201,0.14032 0.63142,-0.25725 0.74835,-1.05238 1.40316,-1.26285 0.65481,-0.21048 1.56687,-0.21048 1.30962,-0.60804 -0.25725,-0.39756 -1.37978,-1.44994 -0.98221,-1.82412 0.39756,-0.37417 5.56588,-5.332027 5.56588,-5.332027 0,0 -1.28623,-0.257246 -1.30962,-0.865285 -0.0234,-0.608039 1.30962,-1.613641 1.21608,-1.707184 -0.0935,-0.09354 -1.23946,0.304019 -1.89428,0.865285 -0.65481,0.561266 -0.51449,1.449938 -1.14591,1.637025 -0.63143,0.187089 -0.6782,-1.216076 -1.33301,-0.865286 -0.65481,0.350793 -0.93544,0.678199 -1.42655,0.537882 -0.49111,-0.140316 -0.72497,-1.333008 -0.56126,-0.397565 0.1637,0.935445 0.72496,1.169305 0.4911,1.216078 -0.23386,0.04677 -0.86528,-1.496711 -1.44993,-1.005602 -0.58466,0.491106 -1.30962,1.356391 -1.6838,1.286235 -0.37418,-0.07016 -0.60804,-0.748356 -0.60804,-0.233863 0,0.514496 1.0056,0.724969 0,1.075761 -1.0056,0.35079 -1.80073,0.724969 -1.82411,0.35079 -0.0234,-0.374176 0.60804,-2.38538 0.28063,-2.549083 -0.32741,-0.1637 -1.42655,0.140317 -1.6838,0.257249 -0.25724,0.11693 -1.0056,-0.537882 -1.07576,-0.678198 -0.0702,-0.140317 2.59586,3.344211 2.59586,3.344211 0,0 -1.75396,1.286235 -2.22168,1.192689 -0.46772,-0.09354 -1.28624,-1.613638 -1.12253,-0.841899 0.1637,0.771742 1.09914,0.678196 0.8419,1.449942 -0.25725,0.771745 -0.39757,0.654815 -0.42095,1.122535 -0.0234,0.46772 0.44433,1.44994 -0.32741,1.28623 -0.77174,-0.1637 -1.47332,-0.21047 -1.49671,-0.93544 -0.0234,-0.72497 0.46772,-0.44434 0.21048,-1.262855 -0.25725,-0.818513 -1.07576,-1.075759 -0.63143,-1.356392 0.44434,-0.280633 0.86529,0.327406 0.81852,-0.608039 -0.0468,-0.935443 0.60803,-0.818513 0.28063,-1.403165 -0.32741,-0.584652 -1.07576,-1.379778 -0.30402,-1.543481 0.77174,-0.163703 0.60804,-0.35079 1.12253,-0.53788 0.51449,-0.187089 0.44434,-0.327406 1.16931,-0.163703 0.72496,0.163703 1.26284,0.11693 0.81851,-0.23386 -0.44434,-0.350792 -0.98222,-0.07016 -0.74836,-0.771742 0.23387,-0.701582 0.70158,-0.724968 0.42095,-0.958828 -0.28063,-0.23386 -0.79512,-0.65481 -0.79512,-0.65481 z"
       id="path82589" />
    <path
       style="fill:#0c88d0;fill-opacity:1;stroke:#0c88d0;stroke-width:0.264583px;stroke-linecap:butt;stroke-linejoin:miter;stroke-opacity:1"
       d="m 119.83029,106.73409 c -0.3274,0.39756 -0.91206,1.30962 -0.98221,1.54348 -0.0702,0.23386 -0.21048,0.3274 -0.60804,0.46772 -0.39757,0.14032 -0.60804,-0.11693 -0.5145,0.30402 0.0936,0.42095 0.30402,0.51449 0.39757,0.74836 0.0936,0.23386 0.11693,0.30402 0,0.60804 -0.11693,0.30401 -0.11693,0.44433 -0.21048,0.67819 -0.0935,0.23386 -0.46772,0.53788 -0.72497,0.6782 -0.25724,0.14031 -0.51449,0.14031 -0.70158,0.46772 -0.18709,0.3274 0.0234,0.25725 -0.18709,0.53788 -0.21047,0.28063 -0.67819,0.53788 -0.8419,0.63142 -0.1637,0.0936 -0.11693,-0.1637 -0.35079,0.30402 -0.23386,0.46772 -0.37418,0.8419 -0.46772,1.30962 -0.0935,0.46772 -0.21047,0.95883 -0.56126,1.28624 -0.35079,0.3274 -0.21048,0.28063 -0.95883,0.63142 -0.74836,0.35079 -0.70159,0.25725 -1.44994,0.58465 -0.74836,0.32741 -1.0056,0.44434 -1.33301,0.70158 -0.3274,0.25725 -0.93544,0 -0.35079,0.60804 0.58465,0.60804 1.09915,0.86529 1.07576,0.95883 -0.0234,0.0936 -0.3274,0.30402 -0.91206,0.37418 -0.58465,0.0702 -1.63702,0.25725 -1.80072,0.37418 -0.16371,0.11693 -0.46773,0.1637 -0.5145,0.49111 -0.0468,0.3274 -0.37418,0.39756 0.0234,0.79512 0.39756,0.39757 0.72497,0.46773 0.88867,0.6782 0.16371,0.21047 0.28064,0.56126 0.42095,0.81851 0.14032,0.25725 0.25725,0.6782 0.16371,0.74836 -0.0935,0.0702 -0.98222,0.88867 -1.23947,0.91205 -0.25725,0.0234 -0.79513,0.11693 -0.98221,0.0234 -0.18709,-0.0935 -0.53788,0 -0.28064,-0.21047 0.25725,-0.21048 1.23947,-0.28063 0.81851,-0.49111 -0.42094,-0.21047 -1.77734,-0.35079 -1.96443,-0.28063 -0.18708,0.0702 -0.51449,-0.0468 -0.53788,0.21047 -0.0234,0.25725 0.70159,1.26285 0.70159,1.26285 l 0.8419,0.18709 c 0,0 0.44433,0.60804 0.51449,0.95883 0.0702,0.35079 1.09915,0.37418 1.44994,0.28063 0.35079,-0.0935 0.56126,0.16371 0.6782,0.37418 0.11693,0.21048 0.1637,0.46772 0.25724,0.58465 0.0935,0.11693 0.53788,0.86529 0.53788,0.86529 0,0 0.0935,-1.14592 1.63703,-1.75396 1.54348,-0.60804 -0.58465,-0.63142 -0.58465,-0.63142 0,0 0.0234,0.46772 0,0.0234 -0.0234,-0.44434 0.11693,-0.56127 0.28063,-0.60804 0.1637,-0.0468 0.51449,-0.11693 0.63142,-0.28063 0.11693,-0.16371 0.25725,-0.91206 0.14032,-1.00561 -0.11693,-0.0935 -0.25725,-0.4911 -0.53788,-0.60804 -0.28063,-0.11693 -0.70158,-0.11693 -0.77174,-0.25724 -0.0702,-0.14032 -0.14032,-0.37418 0.0936,-0.49111 0.23386,-0.11693 0.42095,-0.14031 0.63142,-0.18709 0.21048,-0.0468 1.05237,-0.23386 1.14592,-0.42095 0.0935,-0.18709 0.1637,-0.53788 0.30402,-0.67819 0.14031,-0.14032 0.30402,-0.25725 0.67819,-0.21048 0.37418,0.0468 0.6782,0.30402 0.74836,0.0936 0.0702,-0.21048 0.56126,0.0234 0,-0.44434 -0.56127,-0.46772 -0.72497,-0.56126 -0.63143,-0.79513 0.0935,-0.23386 -0.0702,-1.0056 0.0702,-1.09914 0.14032,-0.0936 0.5145,0.0935 0.35079,-0.46772 -0.1637,-0.56127 -0.23386,-0.58465 -0.23386,-0.74836 0,-0.1637 0.16371,-0.1637 0.32741,-0.42095 0.1637,-0.25725 0.21047,-0.49111 0.23386,-0.58465 0.0234,-0.0935 0.28063,-0.49111 0.60804,-0.56127 0.3274,-0.0701 0.86528,-0.1637 0.95883,-0.46772 0.0935,-0.30402 0.21047,-0.81851 0.39756,-1.09914 0.18709,-0.28064 0.37418,-0.3508 0.63143,-0.65482 0.25724,-0.30401 0.53788,-0.21047 0.58465,-0.70158 0.0468,-0.4911 -0.0234,-0.93544 0.0702,-1.333 0.0935,-0.39757 0.81851,-0.74836 0.95883,-0.91206 0.14031,-0.1637 0.18709,0.25725 0.18709,-0.49111 0,-0.74835 0.0702,-1.70718 0.18709,-1.94104 0.11693,-0.23386 0.42095,-0.58465 0.58465,-0.86529 0.1637,-0.28063 0.56126,-1.12253 0.3274,-1.23946 -0.23386,-0.11693 -0.30402,-0.1637 -0.30402,-0.1637 z"
       id="path92641" />
    <path
       style="fill:#0c88d0;fill-opacity:1;stroke:#0c88d0;stroke-width:0.264583px;stroke-linecap:butt;stroke-linejoin:miter;stroke-opacity:1"
       d="m 134.58691,117.37476 c 0.31571,-0.18709 0.6782,-0.49111 0.63143,-1.0173 -0.0468,-0.52619 -0.66651,-0.64312 0.10523,-0.72497 0.77174,-0.0819 1.11084,-0.0117 0.90036,-0.42095 -0.21047,-0.40925 -0.90036,-0.98221 -0.3274,-1.14591 0.57296,-0.16371 2.40876,-0.65481 2.81802,-0.78344 0.40926,-0.12862 0.79513,-0.0117 0.68989,-0.57296 -0.10524,-0.56126 -0.37418,-0.73666 -0.0468,-0.97052 0.3274,-0.23386 0.10523,-0.39756 1.06406,-0.78343 0.95884,-0.38587 1.48502,-0.24556 2.06967,-0.57296 0.58465,-0.32741 0.57296,-0.85359 1.33301,-0.95883 0.76005,-0.10524 1.27454,0.0351 1.40316,0.0935 0.12863,0.0585 0.0585,0.1754 0.0819,0.63143 0.0234,0.45603 -0.18709,1.01729 0.35079,0.80682 0.53788,-0.21048 0.58465,-0.46773 1.13422,-0.65481 0.54957,-0.18709 0.53788,0.14031 0.68989,-0.61973 0.15201,-0.76005 0.36248,-0.77175 0.60804,-0.8536 0.24555,-0.0819 0.31571,-0.52618 0.77174,-0.51449 0.45603,0.0117 0.91206,0 1.11084,0.1637 0.19878,0.16371 0.38587,-0.0819 0.29233,0.44434 -0.0936,0.52618 -0.30402,0.81851 -0.0702,0.93544 0.23386,0.11693 -0.29233,0.22217 0.0935,0.3391 0.38587,0.11693 0.73666,-0.0117 0.77174,-0.39756 0.0351,-0.38587 -0.0701,-0.57296 0.12863,-1.42656 0.19878,-0.85359 0.3274,-0.92375 0.52618,-1.18099 0.19879,-0.25725 0.15201,-0.87698 0.15201,-0.87698 0,0 1.25087,-2.08805 1.54852,-2.41878 0.29766,-0.33073 0.95912,-0.42995 0.69454,-1.02526 -0.26459,-0.59532 -0.56224,-0.29766 -0.8599,-0.69453 -0.29766,-0.39688 -0.82682,-0.56224 -0.16537,-0.99219 0.66146,-0.42995 0.82683,-0.42995 1.42214,-0.79375 0.59531,-0.3638 0.42995,0.16536 0.79375,-0.859905 0.3638,-1.025258 -0.33073,-1.521352 0.42995,-1.918227 0.76068,-0.396875 0.82682,-0.06615 1.02526,-0.595313 0.19844,-0.529166 -0.3638,-1.322916 0.39687,-1.455208 0.76068,-0.132292 1.12448,0.264583 1.19063,-0.132292 0.0661,-0.396875 -1.2237,-1.289843 0.23151,-1.322916 1.45521,-0.03307 1.48828,-0.330729 1.62057,0.09922 0.13229,0.429947 -0.0992,1.091406 -0.52916,1.752864 -0.42995,0.661458 -1.75287,2.017448 -1.95131,2.315104 -0.19843,0.297656 -0.92604,0.992188 -0.92604,1.719788 0,0.727615 0.0331,1.719795 -0.42995,2.414335 -0.46302,0.69453 -1.05833,2.14974 -1.62057,3.00963 -0.56224,0.8599 -1.25677,1.91823 -1.25677,1.91823 l -3.20807,4.20026 c 0,0 -3.96875,2.3151 -4.86172,2.71198 -0.89297,0.39687 -9.06198,2.91042 -9.525,2.97656 -0.46302,0.0661 -1.30219,0.15202 -1.30219,0.15202 z"
       id="path99028" />
    <path
       style="fill:#0c88d0;fill-opacity:1;stroke:#0c88d0;stroke-width:0.264583px;stroke-linecap:butt;stroke-linejoin:miter;stroke-opacity:1"
       d="m 41.730509,101.74462 c -0.959115,0.33073 -9.392708,3.83646 -9.392708,3.83646 l 2.579687,6.25078 9.194271,-3.57188 0.628385,0.26459 5.754688,-2.57969 c 0,0 -1.12448,-1.5875 -0.496094,-1.91823 0.628385,-0.33073 1.02526,-0.19844 1.058333,0.19844 0.03307,0.39687 -0.264583,1.38906 0.06615,1.4552 0.330729,0.0661 0.396875,-1.05833 0.859896,-1.12447 0.463021,-0.0661 0.892969,1.05833 1.5875,0.52916 0.694531,-0.52916 1.091406,-0.95911 1.190625,-1.15755 0.09922,-0.19844 -0.03307,-0.76068 0.198437,-1.28984 0.231511,-0.52917 1.223698,-1.68672 1.885156,-1.68672 0.661459,0 1.620573,-0.0661 1.554428,0.89297 -0.06615,0.95911 0,1.19062 0.165364,1.19062 0.165365,0 2.546615,-1.15755 2.778125,-1.2237 0.231511,-0.0661 1.322917,-0.7276 2.215885,-0.62838 0.892969,0.0992 0.959115,-0.0331 0.959115,0.16536 0,0.19844 -0.56224,1.28985 0.363802,0.66146 0.926042,-0.62838 1.719792,-1.32292 1.058333,-1.5875 -0.661458,-0.26458 -1.521354,-0.529175 -2.348177,-0.859905 -0.826823,-0.330724 -1.686718,-1.091401 -2.38125,-1.75286 -0.694531,-0.661458 -0.330729,-0.363802 -0.727604,-1.488281 -0.396875,-1.124479 -0.595312,-1.951302 -1.02526,-3.075781 -0.429948,-1.124479 -0.429948,-2.38125 -0.826823,-2.513542 -0.396875,-0.132291 -0.628385,1.752865 -1.124479,2.050521 -0.496094,0.297656 -2.447396,0.79375 -2.579688,0.859896 -0.132291,0.06615 -0.330729,-1.190625 -0.661458,-1.653646 -0.330729,-0.463021 -2.017448,0.363802 -2.116667,0.529167 -0.09922,0.165364 -3.737239,1.81901 -3.902604,1.951302 -0.165364,0.132292 0.529167,1.852083 0.529167,1.852083 l -3.836458,1.686719 0.926041,2.116667 -1.752864,0.66146 -1.058334,-2.083596 -1.951302,0.727601 z"
       id="path107633" />
    <path
       style="fill:#0c88d0;fill-opacity:1;stroke:#0c88d0;stroke-width:0;stroke-miterlimit:4;stroke-dasharray:none;stroke-opacity:1"
       d=""
       id="path131673"
       transform="scale(0.26458333)" />
    <path
       style="fill:#0c88d0;fill-opacity:1;stroke:#0c88d0;stroke-width:0;stroke-miterlimit:4;stroke-dasharray:none;stroke-opacity:1"
       d=""
       id="path131712"
       transform="scale(0.26458333)" />
    <path
       style="fill:#0c88d0;fill-opacity:1;stroke:#0c88d0;stroke-width:0.264583px;stroke-linecap:butt;stroke-linejoin:miter;stroke-opacity:1"
       d="m 55.729037,116.95381 c 0.584652,0 1.8475,-0.21048 1.8475,-0.21048 l 0.53788,0.86529 c 0,0 -0.467721,0.39756 -0.491107,0.70158 -0.02339,0.30402 0.163702,1.37978 0.163702,1.37978 0,0 0.654811,0.0935 0.888671,-0.11693 0.233861,-0.21048 0.678197,-0.98222 0.95883,-0.98222 0.280633,0 0.491108,0.0234 0.491108,0.0234 0,0 0.02339,1.12253 -0.444336,1.42655 -0.467722,0.30402 -1.520095,0.53788 -1.870887,0.58465 -0.350791,0.0468 -0.467721,0.32741 -0.467721,0.42095 0,0.0936 -2.853103,0.53789 -2.853103,0.53789 0,0 0.491108,0.95882 0.514494,1.09914 0.02339,0.14032 -17.141999,7.13275 -17.141999,7.13275 0,0 -0.09354,1.21608 0.09354,1.42656 0.187089,0.21047 1.379779,1.23946 0.771741,1.28623 -0.608038,0.0468 -0.982215,0.0935 -0.982215,0.0935 0,0 -0.748355,-1.21608 -0.865286,-1.61364 -0.11693,-0.39757 -0.467721,-1.3564 -0.467721,-1.3564 0,0 -0.210475,-0.25724 -0.327405,0.28064 -0.116931,0.53788 -0.724969,0.58465 -0.724969,0.58465 0,0 -0.467722,-0.44434 -0.280633,-0.79513 0.187089,-0.35079 0.491108,-0.60804 0.678196,-0.79512 0.187089,-0.18709 0.467722,-0.86529 0.818513,-1.09915 0.350792,-0.23386 1.61364,-0.44434 2.502311,-0.86529 0.888671,-0.42094 3.250666,-1.54348 3.952248,-1.8475 0.701583,-0.30402 3.157122,-1.28623 3.157122,-1.28623 l -0.865285,-2.45554 2.221678,-0.86529 0.561266,1.30963 5.355413,-2.40877 c 0,0 1.449937,-0.18709 1.8475,-0.23386 0.397564,-0.0468 0.818513,-1.49671 0.724969,-1.54348 -0.09354,-0.0468 -0.257247,-0.56127 -0.257247,-0.56127 z"
       id="path132307" />
    <path
       style="fill:#ffdb78;fill-opacity:1;stroke:#ffdb78;stroke-width:0.264583px;stroke-linecap:butt;stroke-linejoin:miter;stroke-opacity:1"
       d="m 16.042854,179.86237 c 0,0 0.420949,-0.63142 0.420949,-0.86528 0,-0.23387 -0.07016,-1.47333 -0.07016,-1.47333 0,0 -0.701583,-0.0935 0.163702,-0.4911 0.865285,-0.39757 1.847501,-0.81852 2.174906,-1.28624 0.327405,-0.46772 0.53788,-0.70158 0.771741,-0.86528 0.233861,-0.16371 0.584652,-0.49111 0.982215,-0.28064 0.397564,0.21048 1.07576,0.58466 1.239463,0.49111 0.163702,-0.0935 0.444335,-0.39756 0.444335,-0.6782 0,-0.28063 0.187089,-0.51449 0.04677,-0.77174 -0.140317,-0.25724 -0.748355,-1.0056 -0.748355,-1.0056 0,0 0.140316,-0.79513 0.467721,-0.95883 0.327406,-0.1637 1.660412,-0.72497 1.870887,-0.98221 0.210475,-0.25725 0.444336,-0.58465 0.374178,-0.88867 -0.07016,-0.30402 0.537879,-0.72497 0.795126,-0.93545 0.257247,-0.21047 1.192691,-0.98221 1.449938,-1.09914 0.257246,-0.11693 0.537879,-0.21048 0.912057,-0.25725 0.374177,-0.0468 0.724968,0.35079 0.771741,0.65481 0.04677,0.30402 0,1.26285 -0.07016,1.40316 -0.07016,0.14032 -0.350792,0.77175 -0.187089,0.8419 0.163703,0.0702 1.239462,-0.56126 1.286234,-0.67819 0.04677,-0.11693 0.935444,-0.72497 1.028988,-0.91206 0.09354,-0.18709 0.42095,-0.58465 0.491108,-0.70158 0.07016,-0.11693 0.678196,-0.77174 0.678196,-0.77174 l 0.491108,-0.0234 0.140317,1.52009 c 0,0 1.286234,-0.18708 1.73057,-0.28063 0.444335,-0.0935 1.987817,-0.3274 2.104747,-0.35079 0.116931,-0.0234 4.41997,-0.53788 4.677217,-0.6782 0.257247,-0.14031 2.853102,-1.21607 2.946646,-1.21607 0.09354,0 1.777343,-0.49111 2.455539,-0.70159 0.678196,-0.21047 3.741773,-1.87088 3.928862,-1.96443 0.187088,-0.0935 0.608038,0.28064 -0.748355,1.21608 -1.356393,0.93544 -5.636046,2.26845 -6.337628,2.47892 -0.701583,0.21048 -4.443356,0.86529 -4.934464,1.09915 -0.491107,0.23386 -4.981235,1.42655 -5.308641,1.54348 -0.327405,0.11693 -3.086963,0.77174 -3.46114,0.91206 -0.374177,0.14032 -1.61364,0.81851 -1.870887,1.07576 -0.257246,0.25725 -1.07576,0.95883 -1.07576,0.95883 0,0 0,0.70158 -0.304019,0.91205 -0.304019,0.21048 -0.514494,1.28624 -1.169304,1.42656 -0.65481,0.14031 -1.777342,0.30402 -1.824114,0.67819 -0.04677,0.37418 -1.262849,-0.0234 -1.216077,0.53788 0.04677,0.56127 0.748355,1.23947 0.210475,1.6838 -0.53788,0.44433 -3.88209,1.05237 -4.770761,1.56687 -0.888671,0.51449 -0.958829,0.11693 -0.958829,0.11693 z"
       id="path151150" />
    <path
       style="fill:#8ddcfd;fill-opacity:1;stroke:#8ddcfd;stroke-width:0.264583px;stroke-linecap:butt;stroke-linejoin:miter;stroke-opacity:1"
       d="m 39.756342,115.10631 -1.590254,-3.69501 -15.434815,6.26748 -1.637025,-0.0468 1.30962,3.55469 -1.870886,1.21608 0.327405,1.1693 6.220698,-2.15152 3.46114,8.79317 -8.746395,3.60145 1.683798,4.77076 -1.028988,0.79513 c 0,0 3.741774,-0.88867 3.741774,-1.07576 0,-0.18709 0.514493,-2.5257 0,-2.57247 -0.514494,-0.0468 -1.122532,1.63703 -1.122532,1.63703 l -0.935444,-2.99342 5.238483,-1.91766 1.028988,2.89987 -1.777343,0.98222 0.514494,0.8419 3.086963,-1.1693 1.216076,2.94664 2.619242,-1.30962 c 0,0 -0.401642,-5.76938 1.683798,-5.02804 1.816305,0.64567 -2.271009,-0.75295 -1.333007,-2.97004 -0.608007,0.49993 -1.510012,1.24161 -1.052374,0.86529 -1.131752,-0.43439 -0.260812,-1.46959 1.079084,-2.64548 l 4.150651,-1.68672 -1.141015,-2.48047 c 0,0 2.23511,-3.33336 0.959114,-7.12721 -0.166502,-0.49505 1.035421,-0.54175 1.837776,-0.98706 1.30096,-0.72202 2.875115,-1.04692 2.875115,-1.04692 l 1.223698,3.0427 1.670182,-0.89296 -0.959115,-2.34818 7.391797,-3.09232 -0.314193,-0.76068 c 0,0 0.429948,-0.26458 0.413412,-0.46302 -0.01654,-0.19843 -0.413412,-0.42994 -0.463021,-1.22369 -0.04961,-0.79375 0.04961,-2.24896 -0.529167,-2.19935 -0.578776,0.0496 -1.273307,0.0331 -1.620573,0.34726 -0.347265,0.31419 -0.711067,0.90951 -0.694531,1.19063 0.01654,0.28112 -0.909505,0.31419 -1.339453,0.51263 -0.429948,0.19843 -1.07487,0.0331 -0.694531,0.69453 0.380338,0.66146 1.02526,0.81028 0.727604,1.02526 -0.297656,0.21497 -1.736328,0.76068 -2.215885,0.99219 -0.479558,0.23151 -2.629297,1.33945 -3.125391,1.57096 -0.496094,0.23151 -2.89388,0.71107 -3.290755,0.81029 -0.396875,0.0992 -1.544219,1.35622 -1.544219,1.35622 z"
       id="path177898"
       sodipodi:nodetypes="ccccccccccccsccccccccccscccccssccccccssscssssssscc" />
    <path
       style="fill:#36ac58;fill-opacity:1;stroke:#36ac58;stroke-width:0.264583px;stroke-linecap:butt;stroke-linejoin:miter;stroke-opacity:1"
       d="m 116.04175,102.38428 c 0,0 -1.56687,1.12253 1.8475,1.8475 0.27725,0.0589 -0.23386,0.49111 0.24591,0.66295 0.24193,0.0867 -0.25342,-0.15439 -0.2394,-0.0159 0.0359,0.35462 0.20396,0.56903 0.20396,0.56903 l 1.73057,1.28623 0.56127,-0.0702 c -1e-4,1e-4 -0.29911,1.1074 -0.36073,1.52627 -0.0235,0.15945 0.28443,-0.16265 0.22041,-0.1231 -0.31356,0.19368 -0.67769,0.61094 -0.86579,1.03517 -0.47677,1.07525 -0.45064,2.46445 -0.23336,2.35581 -0.40922,0.3398 -0.86272,0.58987 -1.04401,0.83582 -0.60972,0.8272 -0.016,1.26683 -0.38254,1.99389 -0.44204,0.28898 -0.85402,0.63208 -1.06877,0.99683 -0.22902,0.38899 -0.25188,0.80261 -0.45132,1.20147 -0.3404,0.13293 -0.73293,0.14775 -1.06151,0.36941 -0.33895,0.22865 -0.61302,0.67105 -0.90292,1.26761 0.3596,0.78021 0.11065,1.03125 -0.13031,1.48337 -0.0676,0.12684 0.003,0.40661 -0.0802,0.55122 0.0364,0.11111 0.0263,0.36744 0.0696,0.47025 0.18885,0.44798 0.50149,0.65814 0.91263,0.83937 -0.50912,0.19108 -0.10306,0.38973 -0.42849,0.4433 -0.12784,0.021 -0.35066,-0.0334 -0.81063,-0.0894 -0.0917,-0.0112 -0.19274,0.0888 -0.30436,0.0671 -0.0691,0.0761 -0.25116,0.0481 -0.31496,0.11473 -1.09775,1.14721 -1.33125,1.05355 -2.14058,1.38198 0.63672,0.34549 1.50054,0.46389 1.49671,1.44994 -0.13524,0.31865 -0.12686,0.44118 -0.25467,0.67267 -0.27163,0.49199 -0.4308,0.18922 -0.66061,0.37578 -0.4757,0.38618 -0.75809,0.85984 -0.41773,0.47166 0.42095,-0.0237 0.8419,-0.30775 1.26285,0.304 6.40972,-0.24267 3.08756,2.23224 3.97643,2.03853 v 0 c 0.42669,1.51493 0.77712,1.19935 1.14512,1.30568 -0.12378,-1.3494 -0.25104,-2.70158 0.53788,-3.32082 l 6.03361,-5.75298 c -0.21472,-0.47238 1.3888,-0.65367 1.56687,-0.46772 0.0647,0.0676 1.23946,-0.1637 1.23946,-0.1637 0,0 0.63143,0.18708 0.91206,0.18708 0.28063,0 0.88867,-0.6548 0.65481,-1.0056 -0.23386,-0.35079 -0.91206,-0.77174 -0.95883,-0.91205 -0.0468,-0.14032 0.93544,-0.11693 1.63702,-0.0935 0.70159,0.0234 1.02899,-0.35079 1.98782,-0.37418 0.95883,-0.0234 3.32083,-0.18708 3.32083,-0.18708 l 0.0935,-0.53788 c 0,0 -1.98782,-0.70159 -2.87649,-0.77174 -0.88867,-0.0702 -1.91766,-0.11693 -2.6894,-0.11693 -0.77174,0 -0.35079,-0.18709 -0.93544,-0.6782 -0.58465,-0.49111 -0.88867,-0.37418 -0.37418,-0.8419 0.51449,-0.46772 0.72497,-1.56687 0.93544,-1.66041 0.21048,-0.0935 0.46773,0.37417 0.74836,-0.21048 0.28063,-0.58465 -0.25725,-1.21607 0.1637,-1.47332 0.42095,-0.25725 1.54348,-1.26285 1.21608,-1.44994 -0.32741,-0.18708 -1.09915,-0.1637 -1.56687,0.0234 -0.46772,0.18709 -1.26285,1.26285 -1.94104,1.40317 -0.6782,0.14031 -0.3508,0.39756 -1.75396,-0.0935 -1.40317,-0.49111 -1.80073,-0.18709 -1.89427,-0.81851 -0.0936,-0.63142 0.25724,-1.1693 0.37417,-1.73057 0.11693,-0.56127 -0.67819,-1.05237 -1.07576,-1.35639 -0.39756,-0.30402 -0.39756,-0.74836 -0.4911,-1.5201 -0.0935,-0.77174 0.25724,-1.09914 -0.23386,-1.12253 -0.49111,-0.0234 -1.56687,0.63142 -1.91766,-0.0234 -0.35079,-0.65481 -1.56687,-1.23946 -2.24507,-1.70718 -0.67819,-0.46772 -1.80073,-0.95883 -1.80073,-0.95883 z"
       id="path197929"
       sodipodi:nodetypes="cssscccssscscscscscscsscsccsscccccccscssssscccssscssssscssssssscc" />
    <path
       style="fill:#36ac58;fill-opacity:1;stroke:#36ac58;stroke-width:0.264583px;stroke-linecap:butt;stroke-linejoin:miter;stroke-opacity:1"
       d="m 139.89555,124.95185 c -0.44434,-0.1637 -2.75956,-0.60804 -3.39098,-0.70158 -0.63143,-0.0936 -2.45554,-0.25725 -3.27405,-0.0936 -0.81852,0.1637 -2.15152,0.63143 -2.78295,0.8419 -0.63142,0.21047 -1.28623,0.44433 -1.80073,0.88867 -0.51449,0.44434 -1.07575,0.44434 -0.77173,0.95883 0.30401,0.5145 0.81851,0.1637 0.6548,0.60804 -0.1637,0.44433 -0.42094,0.58465 -0.72496,0.72497 -0.30402,0.14031 -0.81852,0 -1.09915,0.18709 -0.28063,0.18708 -0.44434,1.26285 -0.51449,1.52009 -0.0702,0.25725 -0.72497,1.30962 -0.95883,1.82412 -0.23386,0.51449 -0.58466,0.86528 -0.5145,1.37977 0.0702,0.5145 0.46773,0.56127 1.02899,0.58466 0.56127,0.0234 1.12253,-0.39757 1.73057,0.0702 0.60804,0.46772 0.35079,0.63142 0.72497,0.67819 0.37418,0.0468 0.8419,0.0468 1.07576,-0.28063 0.23386,-0.32741 0.28063,-0.86529 0.60804,-0.86529 0.3274,0 0.74835,0.30402 1.05237,0.58466 0.30402,0.28063 1.42655,0.53788 0.70158,0.60803 -0.72496,0.0702 -1.94104,-0.14031 -1.94104,0.11693 0,0.25725 1.41547,0.6204 0.95883,1.09915 -0.45664,0.47875 -0.18709,0.81851 -0.91206,0.81851 -0.72497,0 -1.28623,0.44434 -1.28623,0.44434 0,0 -1.02899,0.0234 -1.07576,0.18709 -0.0468,0.1637 0.74835,1.40316 0.60804,1.63702 -0.14032,0.23386 -1.05238,-0.0701 -1.16931,0.46773 -0.11693,0.53787 -0.1612,1.8204 -0.1612,1.8204 l -0.25838,1.31775 c 0,0 0.93407,-0.75277 1.19132,-0.44876 0.25725,0.30402 0.10806,0.89171 0.10806,0.89171 0,0 -0.73384,0.0264 0,0 0.73384,-0.0264 1.43542,-0.16674 1.90314,-0.0966 0.46773,0.0702 1.89428,0.23386 2.78295,0.44434 0.88867,0.21047 1.1693,-0.32741 1.49671,0.63142 0.3274,0.95883 0.8419,0.98222 0.8419,0.98222 0,0 0.74835,-0.95883 1.47332,-0.95883 0.72497,0 1.28623,-0.46772 1.30962,0 0.0234,0.46772 -1.21608,0.84189 -0.32741,1.05237 0.88867,0.21047 0.49111,0.37418 1.09915,0.11693 0.60804,-0.25725 0.67819,-0.98221 0.88867,-0.63142 0.21047,0.35079 -0.28063,0.30401 0.0935,0.65481 0.37418,0.35079 0.81852,0.25724 0.79513,-0.0234 -0.0234,-0.28063 -0.28063,-0.86529 0.25725,-0.65481 0.53788,0.21047 0.60803,-0.14032 0.77174,0.49111 0.1637,0.63142 0.21047,1.02898 0.63142,1.14591 0.42095,0.11693 1.14592,0.18709 0.8419,-0.25724 -0.30402,-0.44434 -0.42095,-0.3508 -0.79513,-0.79513 -0.37417,-0.44433 -0.91205,-0.56126 -0.37417,-0.74835 0.53788,-0.18709 0.51449,-0.0468 0.95883,-0.5145 0.44433,-0.46772 0.91205,0.1637 0.42095,-0.63142 -0.49111,-0.79513 -0.35079,-0.91206 -0.77174,-1.02899 -0.42095,-0.11693 -0.25725,-0.14032 -1.05238,0.28063 -0.79512,0.42095 -0.3274,-0.0234 -1.77734,0 -1.44994,0.0234 -1.77734,-0.30402 -2.19829,0.0935 -0.42095,0.39756 0.39756,0.37417 -0.49111,0.74835 -0.88867,0.37418 -1.05237,0.42095 -1.26284,0.6782 -0.21048,0.25725 -0.42095,0.23386 -0.63143,0.30402 -0.21047,0.0702 0.39756,-0.72497 -0.0234,-0.98222 -0.42095,-0.25725 -0.72497,-0.51449 -1.02899,-0.79512 -0.30402,-0.28064 -0.67819,-0.8419 -0.0935,-0.88868 0.58466,-0.0468 1.26285,0.0702 1.23947,-0.21047 -0.0234,-0.28063 -0.21048,-0.14032 -0.42095,-0.46772 -0.21048,-0.32741 0.0234,-0.37418 0.28063,-0.60804 0.25725,-0.23386 0.6782,-1.12253 0.42095,-1.5201 -0.25725,-0.39756 -0.35079,-0.60804 -0.58465,-0.67819 -0.23386,-0.0702 -0.93545,-0.23386 -0.21048,-0.37418 0.72497,-0.14032 1.09915,-0.37418 0.98222,-0.6782 -0.11693,-0.30402 0.49111,0.11693 0.25724,-0.51449 -0.23386,-0.63143 -0.0468,-0.6782 0.30402,-1.0056 0.3508,-0.32741 0.77174,-0.60804 0.93544,-1.05238 0.1637,-0.44433 0.18709,-0.37417 0,-0.65481 -0.18709,-0.28063 -0.86528,-1.66041 -0.42095,-1.96443 0.44433,-0.30402 2.54908,-2.97003 3.43775,-2.50231 0.88868,0.46772 0.65482,0.30402 1.12254,0.77174 0.46772,0.46772 0.72496,0.53788 0.67819,0.88867 -0.0468,0.35079 0.46772,-0.21047 0.44434,-0.63142 -0.0234,-0.42095 0.39756,-0.8419 -0.32741,-1.42655 -0.72497,-0.58465 -0.98221,-0.77174 -1.26284,-0.86529 -0.28064,-0.0935 -0.11694,0.14032 -0.81852,-0.86528 -0.70158,-1.0056 0.93545,-0.86529 -0.60804,-1.19269 -1.54348,-0.32741 -2.19829,-0.0935 -1.73057,-0.60804 0.46773,-0.51449 2.33467,0.24479 2.59926,0.24479 0.26458,0 0.6748,0.22293 0.6748,0.22293 l 0.17539,1.60195 c 0,0 1.70718,0.19878 1.63703,-0.0234 -0.0702,-0.22217 -0.19879,-2.01121 -0.19879,-2.01121 l 1.6838,-0.61973 c 0,0 1.5084,0.15201 1.95274,0.19879 0.44434,0.0468 3.75347,-0.10524 4.40828,-0.15202 0.65481,-0.0468 1.87088,-0.0935 2.47892,-0.18708 0.60804,-0.0935 0.60804,0.14031 1.35639,-0.37418 0.74836,-0.51449 0.0935,-1.02899 1.59026,-1.44994 1.49671,-0.42095 1.44994,-0.37418 1.77734,-0.56127 0.32741,-0.18708 -0.3274,-0.93544 0.46772,-0.98221 0.79513,-0.0468 1.12253,0.28063 1.40317,-0.0468 0.28063,-0.32741 0.14031,-0.70158 0.60804,-0.88867 0.46772,-0.18709 1.02898,-0.5145 0.98221,0.23386 -0.0468,0.74835 -0.65481,2.10474 0.32741,1.59025 0.98221,-0.51449 1.07576,-0.74835 1.49671,-1.02899 0.42094,-0.28063 -0.65481,-0.42095 0.88867,-0.42095 1.54348,0 2.15152,-0.98221 2.89987,-1.26284 0.74836,-0.28064 0.37418,-1.16931 1.40317,-0.88867 1.02898,0.28063 1.73057,0.60803 2.29183,0.3274 0.56127,-0.28063 1.26285,-0.42095 0.23386,-0.74836 -1.02898,-0.3274 -1.91766,-0.0935 -1.82411,-0.79512 0.0935,-0.70158 0,-2.75956 0.14032,-3.18051 0.14031,-0.42095 0.60803,-1.35639 0.60803,-1.35639 l -1.87088,-0.28064 c 0,0 0.37417,-1.59025 0.60803,-2.19829 0.23387,-0.60803 1.26285,-0.28063 0.88868,-0.79512 -0.37418,-0.5145 -1.49671,-1.02899 -0.5145,-1.02899 0.98222,0 1.44994,0 1.54348,-0.18709 0.0935,-0.18709 0.23386,-0.32741 0.23386,-1.26285 0,-0.93544 0,-2.05797 0,-2.05797 0,0 1.3564,0.14031 1.96444,0 0.60803,-0.14032 1.07576,-1.16931 1.59025,-1.26285 0.51449,-0.0936 0.18709,-1.35639 -0.56127,-0.8419 -0.74835,0.51449 -0.79512,0.74835 -0.98221,1.12253 -0.18709,0.37418 -0.37418,0.70158 -0.88867,0.70158 -0.5145,0 -2.94665,-0.37417 -2.94665,-0.37417 0,0 0.46772,-1.26285 0.28063,-1.82412 -0.18709,-0.56126 0.46773,-2.759565 0.56127,-3.040195 0.0935,-0.280633 0.70158,-1.824114 1.63702,-1.309619 0.93545,0.514493 0.98222,0.748353 1.87089,1.590249 0.88867,0.841905 1.07576,0.795135 1.30962,1.075765 0.23386,0.28064 -0.60804,0.74836 -0.14031,1.12254 0.46772,0.37417 1.12253,-0.0935 1.59025,-0.14032 0.46772,-0.0468 0.79513,-1.59025 1.35639,-0.28063 0.56127,1.30962 0.56127,2.38538 1.02899,2.24506 0.46772,-0.14032 0.0468,-0.37418 1.77734,-0.8419 1.73057,-0.46772 2.99342,-0.56126 3.46114,-0.79512 0.46773,-0.23387 3.64823,-1.30963 3.74177,-1.73058 0.0935,-0.420945 0.28064,-0.701585 0.37418,-0.935445 0.0935,-0.23386 -1.54348,-1.403165 -0.60804,-1.870885 0.93545,-0.467722 0.88868,-1.543484 1.16931,-0.467722 0.28063,1.075758 0.93544,1.777341 1.21608,1.122532 0.28063,-0.65481 -0.5145,-2.57247 0.37417,-1.777342 0.88867,0.795126 1.73057,0.42095 2.61924,1.496709 0.88868,1.075758 1.44994,1.777338 1.87089,1.730568 0.42095,-0.0468 1.59026,0.0936 0.70158,-0.65481 -0.88867,-0.748352 -2.47892,-1.824114 -2.47892,-2.338607 0,-0.514495 -0.28064,-1.496711 0.60804,-1.590254 0.88867,-0.09354 2.29183,0.701582 2.71278,0.888672 0.42095,0.187087 0.32741,0.654809 0.88867,0.841899 0.56127,0.187089 0.65481,0.561266 1.16931,0.140316 0.51449,-0.420949 0.60804,-0.09354 0.65481,-0.982215 0.0468,-0.888672 0.3274,-0.841899 0.65481,-1.403165 0.3274,-0.561266 1.26285,-1.496711 0.51449,-1.824114 -0.74835,-0.327406 -0.74835,-1.122532 -1.49671,-0.140317 -0.74835,0.982216 -0.51449,1.730569 -1.35639,1.730569 -0.8419,0 -0.79513,0.233862 -1.73057,-0.187087 -0.93544,-0.42095 -1.02899,-0.748356 -1.49671,-1.075762 -0.46772,-0.327403 0.28063,-1.356391 -1.30962,-0.140316 -1.59025,1.216078 -1.77734,1.075761 -1.73057,1.91766 0.0468,0.841899 0.42095,1.216075 0.0468,1.449935 -0.37418,0.233863 -0.28063,-0.420949 -1.40316,-0.280633 -1.12254,0.140317 -1.02899,0.420952 -2.01121,0.748356 -0.98221,0.327406 -2.10474,0.140316 -1.87088,1.028988 0.23386,0.888672 0.74835,1.309621 0.46772,1.543485 -0.28063,0.23386 -0.79513,0.42095 -1.26285,0 -0.46772,-0.420953 0.93544,-0.14032 -0.74835,-0.79513 -1.6838,-0.654811 -1.49671,-0.888671 -2.29184,-1.262848 -0.79513,-0.374179 -2.19829,-0.654812 -0.93544,0.327404 1.26285,0.982215 1.77734,1.309621 1.26285,1.730574 -0.5145,0.42095 -0.65482,0.23386 -1.59026,0.795125 -0.93544,0.56127 -0.88867,-0.0468 -1.49671,0.28064 -0.60804,0.3274 0.14032,0.60803 -1.21608,0.65481 -1.35639,0.0468 -1.87088,0.0468 -2.43215,-0.32741 -0.56126,-0.37418 -0.8419,-0.982215 -2.05797,-1.824118 -1.21608,-0.841899 -1.59026,-2.198291 -2.29184,-1.262848 -0.70158,0.935442 -1.63702,2.057971 -1.73057,2.385381 -0.0935,0.327405 -0.60804,3.274055 -0.60804,3.274055 l -0.70158,0.56127 c 0,0 -0.42095,1.54348 -0.3274,2.05797 0.0935,0.5145 -0.70159,0.56127 0.23386,1.21608 0.93544,0.65481 1.21607,0.42095 0.93544,0.93544 -0.28063,0.5145 -0.32741,0.46772 -0.8419,0.88867 -0.51449,0.42095 -0.65481,0.37418 -0.70158,1.26285 -0.0468,0.88867 0.14032,1.30962 -0.23386,1.6838 -0.37418,0.37418 -1.02899,-1.07576 -0.46773,0.42095 0.56127,1.49671 0.37418,2.99342 0.23387,3.88209 -0.14032,0.88867 0.23386,0.65481 -1.07576,1.1693 -1.30962,0.5145 -2.75956,0.60804 -3.27405,1.07576 -0.5145,0.46773 -2.5257,1.91766 -2.5257,1.91766 0,0 0.18709,0.60804 -0.60804,0.6782 -0.79513,0.0702 -1.47332,1.05237 -1.47332,1.05237 l -2.57247,1.56687 c 0,0 -1.82412,0.8419 -2.64263,0.93544 -0.81851,0.0936 -11.97367,0.37418 -11.97367,0.37418 z"
       id="path207192" />
    <path
       style="fill:#fa7a6f;fill-opacity:1;stroke:#fa7a6f;stroke-width:0.264583px;stroke-linecap:butt;stroke-linejoin:miter;stroke-opacity:1"
       d="m 169.09431,68.241748 c -0.23151,0.231511 -1.02526,0.09922 -0.33073,0.79375 0.69453,0.694532 1.25677,0.859896 1.28984,1.35599 0.0331,0.496094 0.16537,0.628385 0.0331,1.289844 -0.13229,0.661458 -0.19843,1.355989 -0.33073,1.620572 -0.13229,0.264584 -0.19843,0.429948 -0.49609,0.628386 -0.29766,0.198437 -0.26458,0.429948 -0.52917,0.628385 -0.26458,0.198438 -0.59531,0.56224 -0.89296,0.198438 -0.29766,-0.363802 0.7276,0.165364 -0.39688,-0.595313 -1.12448,-0.760677 -1.55443,-0.892968 -1.75286,-1.091406 -0.19844,-0.198437 0.26458,-0.330729 -0.69454,-0.727604 -0.95911,-0.396875 -1.19062,-0.264583 -1.28984,0.06615 -0.0992,0.330729 -0.56224,0.628385 0.0331,1.091406 0.59532,0.463021 0.99219,0.628385 1.28985,1.157552 0.29765,0.529167 0.76067,0.79375 0.79375,1.157552 0.0331,0.363802 -0.26459,0.496094 0.23151,0.926042 0.49609,0.429948 0.49609,0.463021 0.89297,0.628385 0.39687,0.165365 0.33073,0.826823 0.95911,1.223698 0.62839,0.396875 0.69453,0.264583 1.15755,0.56224 0.46302,0.297656 0.59532,0.132291 0.59532,0.529166 0,0.396875 0.0992,0.463021 -0.0992,0.595313 -0.19844,0.132291 -0.79375,0.760677 -0.95912,0.727604 -0.16536,-0.03307 -0.89297,-0.727604 -1.19062,-0.992188 -0.29766,-0.264583 -0.16537,-0.760677 -0.62839,-0.396875 -0.46302,0.363803 -0.66146,0.496094 -0.66146,0.694532 0,0.198437 -0.29765,0.429948 -0.49609,0.628385 -0.19844,0.198438 -0.76068,0.03307 -0.39687,0.694531 0.3638,0.661459 0.3638,0.463021 0.85989,1.025261 0.49609,0.562239 0.89297,0.297656 0.42995,0.694531 -0.46302,0.396875 -1.25677,0.529167 -1.45521,1.124479 -0.19844,0.595313 0.23151,1.025261 0.66146,1.124479 0.42995,0.09922 0.62838,0 1.02526,0.231511 0.39687,0.23151 0.0992,0.363802 0.62838,0.859896 0.52917,0.496093 0.56224,0.595312 1.09141,0.628385 0.52917,0.03307 0.92604,0.23151 0.82682,-0.330729 -0.0992,-0.56224 -0.89297,-0.760677 -0.19843,-0.959115 0.69453,-0.198437 1.05833,0.06615 1.32291,-0.396875 0.26459,-0.463021 0.29766,-0.463021 0.26459,-1.091406 -0.0331,-0.628385 0.46302,-0.926042 -0.1323,-1.256771 -0.59531,-0.330729 -0.82682,-0.264583 -1.12447,-0.429948 -0.29766,-0.165364 -1.45521,0.198438 -0.52917,-0.661458 0.92604,-0.859896 1.32292,-0.463021 1.45521,-1.091406 0.13229,-0.628386 -1.05834,-0.694532 0.19843,-1.256771 1.25678,-0.56224 0.72761,-0.165365 1.62058,-0.661458 0.89297,-0.496094 0.46302,-0.628386 1.35599,-0.727605 0.89297,-0.09922 0.85989,-0.396875 1.5875,-0.132291 0.7276,0.264583 0.99218,0.562239 1.32291,0.992187 0.33073,0.429948 0.79375,0.429948 0.39688,1.058334 -0.39688,0.628385 -0.95912,0.892968 -0.92604,1.488281 0.0331,0.595312 0.19843,0.727604 0.19843,1.653646 0,0.926041 -0.3638,0.992187 0,1.322916 0.36381,0.330729 0.82683,0.727604 1.42214,-0.03307 0.59531,-0.760677 0.29766,-0.429948 0.66146,-1.422135 0.3638,-0.992188 0.26458,-1.124479 0.95911,-1.422135 0.69453,-0.297657 1.15755,0.297656 1.38907,-0.926042 0.23151,-1.223698 0.0331,-1.289844 0.0661,-2.017448 0.0331,-0.727604 0,-0.529167 0.76068,-0.992187 0.76068,-0.463021 1.38906,-1.389063 1.28984,-0.628386 -0.0992,0.760677 -0.95911,1.455208 0,1.157552 0.95912,-0.297656 1.62057,-0.496094 1.62057,-1.686719 0,-1.190625 0.0661,-1.852083 -0.16536,-2.248958 -0.23151,-0.396875 -0.62839,-0.79375 -1.38906,-0.727604 -0.76068,0.06615 -2.0836,1.885156 -1.2237,0.06615 0.8599,-1.819011 1.35599,-1.719792 1.35599,-2.182813 0,-0.46302 0.0331,-0.330729 0.19844,-0.959114 0.16536,-0.628386 1.42213,-2.348177 0.0331,-1.322917 -1.38906,1.025261 -1.85208,1.918229 -1.9513,1.289844 -0.0992,-0.628386 0.26458,-1.025261 -0.19844,-1.289844 -0.46302,-0.264583 -1.52135,-0.297656 -0.62839,-0.595312 0.89297,-0.297657 1.12448,-0.132292 1.45521,-0.529167 0.33073,-0.396875 0.42995,-0.463021 0.33073,-0.595313 -0.0992,-0.132291 -0.0331,-1.02526 0.39688,-1.058333 0.42995,-0.03307 0.79375,0.396875 0.85989,-0.06615 0.0661,-0.463021 -0.33073,0.264584 -0.42994,-0.760677 -0.0992,-1.02526 -0.72761,-1.488281 -0.42995,-1.984375 0.29765,-0.496093 0.59531,-0.628385 0.49609,-1.157552 -0.0992,-0.529166 -0.66146,-0.727604 -0.19844,-1.124479 0.46302,-0.396875 1.09141,-0.23151 0.36381,-0.727604 -0.72761,-0.496094 -0.99219,-0.330729 -1.28985,-0.760677 -0.29765,-0.429948 -0.26458,-0.396875 -1.12448,0.06615 -0.85989,0.46302 -1.2237,0.429948 -0.79375,0.859895 0.42995,0.429948 1.02526,0.56224 1.45521,0.595313 0.42995,0.03307 0.79375,0.198437 0.49609,0.496094 -0.29765,0.297656 -1.19062,0.429948 -1.02526,0.694531 0.16537,0.264583 0.69454,0.363802 0.8599,0.529167 0.16536,0.165364 0.26458,0.132291 0.19844,0.562239 -0.0661,0.429948 0.29765,1.256771 0.26458,1.521354 -0.0331,0.264584 0,0.992188 -0.19844,1.35599 -0.19843,0.363802 -0.59531,0.595312 -1.15755,0.727604 -0.56224,0.132292 -0.42995,-0.264583 -1.35599,0.06615 -0.92604,0.330729 -1.02526,0.562239 -1.52135,0.926042 -0.4961,0.363802 -0.69453,-0.06615 -0.72761,0.529166 -0.0331,0.595313 0.4961,0.56224 0.23151,1.091406 -0.26458,0.529167 -0.76067,0.595313 -0.59531,0.992188 0.16537,0.396875 0.29766,1.223698 1.25677,0.79375 0.95912,-0.429948 1.02526,-1.124479 1.28985,-0.56224 0.26458,0.56224 0.42994,1.620573 0.0331,1.951302 -0.39688,0.33073 -1.12448,0.694532 -1.02526,1.190625 0.0992,0.496094 1.02526,0.363802 0.19844,0.926042 -0.82683,0.56224 -1.2237,0.694531 -1.68672,0.56224 -0.46302,-0.132292 -0.56224,-0.661459 -1.12448,0.132291 -0.56224,0.79375 -0.66146,1.157552 -1.71979,1.091407 -1.05834,-0.06615 -1.32292,-0.56224 -1.55443,-0.694532 -0.23151,-0.132291 -0.7276,0.165365 -0.92604,-0.132291 -0.19844,-0.297657 -0.0661,-0.694532 -0.0331,-1.025261 0.0331,-0.330729 -0.39687,-0.23151 -0.59531,-0.760677 -0.19844,-0.529167 -0.13229,-1.256771 -0.16536,-1.852083 -0.0331,-0.595313 -0.23151,-0.628386 -0.26459,-1.289844 -0.0331,-0.661458 0.82683,-0.03307 -0.13229,-1.157552 -0.95911,-1.124479 -1.32291,-2.083594 -1.32291,-2.083594 z"
       id="path210828" />
    <rect
       style="fill:#36ac58;fill-opacity:1;stroke:#fa7a6f;stroke-width:0"
       id="rect863"
       width="11.546323"
       height="3.0864577"
       x="164.0934"
       y="159.258" />
    <rect
       style="fill:#0c88d0;fill-opacity:1;stroke:#fa7a6f;stroke-width:0"
       id="rect863-8"
       width="11.546323"
       height="3.0864577"
       x="164.0934"
       y="164.02983" />
    <rect
       style="fill:#8ddcfd;fill-opacity:1;stroke:#fa7a6f;stroke-width:0"
       id="rect863-2"
       width="11.546323"
       height="3.0864577"
       x="164.0934"
       y="168.80165" />
    <rect
       style="fill:#fa7a6f;fill-opacity:1;stroke:#fa7a6f;stroke-width:0"
       id="rect863-9"
       width="11.546323"
       height="3.0864577"
       x="164.0934"
       y="173.57347" />
    <rect
       style="fill:#ffdb78;fill-opacity:1;stroke:#fa7a6f;stroke-width:0"
       id="rect863-92"
       width="11.546323"
       height="3.0864577"
       x="164.0934"
       y="154.48618" />
    <text
       xml:space="preserve"
       style="font-style:normal;font-weight:normal;font-size:1.72162px;line-height:1.25;font-family:sans-serif;fill:#ffffff;fill-opacity:1;stroke:none;stroke-width:0.322804"
       x="177.72855"
       y="155.66473"
       id="text37785"
       transform="scale(0.99357857,1.0064629)"><tspan
         sodipodi:role="line"
         id="tspan37783"
         style="font-size:1.72162px;fill:#ffffff;stroke-width:0.322804"
         x="177.72855"
         y="155.66473">Southern</tspan></text>
    <text
       xml:space="preserve"
       style="font-style:normal;font-weight:normal;font-size:1.72162px;line-height:1.25;font-family:sans-serif;fill:#ffffff;fill-opacity:1;stroke:none;stroke-width:0.322804"
       x="177.67307"
       y="160.30392"
       id="text37785-5"
       transform="scale(0.99357857,1.0064629)"><tspan
         sodipodi:role="line"
         id="tspan37783-4"
         style="font-size:1.72162px;fill:#ffffff;stroke-width:0.322804"
         x="177.67307"
         y="160.30392">Southern/Mount Grand</tspan></text>
    <text
       xml:space="preserve"
       style="font-style:normal;font-weight:normal;font-size:1.72162px;line-height:1.25;font-family:sans-serif;fill:#ffffff;fill-opacity:1;stroke:none;stroke-width:0.322804"
       x="177.67307"
       y="165.17258"
       id="text37785-9"
       transform="scale(0.99357857,1.0064629)"><tspan
         sodipodi:role="line"
         id="tspan37783-3"
         style="font-size:1.72162px;fill:#ffffff;stroke-width:0.322804"
         x="177.67307"
         y="165.17258">Mount Grand</tspan></text>
    <text
       xml:space="preserve"
       style="font-style:normal;font-weight:normal;font-size:1.72162px;line-height:1.25;font-family:sans-serif;fill:#ffffff;fill-opacity:1;stroke:none;stroke-width:0.322804"
       x="177.67307"
       y="169.76172"
       id="text37785-95"
       transform="scale(0.99357857,1.0064629)"><tspan
         sodipodi:role="line"
         id="tspan37783-6"
         style="font-size:1.72162px;fill:#ffffff;stroke-width:0.322804"
         x="177.67307"
         y="169.76172">Mosgiel</tspan></text>
    <text
       xml:space="preserve"
       style="font-style:normal;font-weight:normal;font-size:1.72162px;line-height:1.25;font-family:sans-serif;fill:#ffffff;fill-opacity:1;stroke:none;stroke-width:0.322804"
       x="177.67307"
       y="174.6804"
       id="text37785-4"
       transform="scale(0.99357857,1.0064629)"><tspan
         sodipodi:role="line"
         id="tspan37783-0"
         style="font-size:1.72162px;fill:#ffffff;stroke-width:0.322804"
         x="177.67307"
         y="174.6804">Port Chalmers</tspan></text>
    <text
       xml:space="preserve"
       style="font-style:normal;font-weight:normal;font-size:2.82222px;line-height:1.25;font-family:sans-serif;fill:#ffffff;fill-opacity:1;stroke:none;stroke-width:0.264583"
       x="112.63741"
       y="139.02974"
       id="text3256"><tspan
         sodipodi:role="line"
         id="tspan3254"
         style="font-size:2.82222px;stroke-width:0.264583;fill:#ffffff"
         x="112.63741"
         y="139.02974">Dunedin</tspan></text>
    <text
       xml:space="preserve"
       style="font-style:normal;font-weight:normal;font-size:2.11667px;line-height:1.25;font-family:sans-serif;fill:#ffffff;fill-opacity:1;stroke:none;stroke-width:0.264583"
       x="107.12254"
       y="131.47441"
       id="text3256-7"><tspan
         sodipodi:role="line"
         id="tspan3254-6"
         style="font-size:2.11667px;stroke-width:0.264583;fill:#ffffff"
         x="107.12254"
         y="131.47441">North Dunedin</tspan></text>
    <text
       xml:space="preserve"
       style="font-style:normal;font-weight:normal;font-size:10.5833px;line-height:1.25;font-family:sans-serif;fill:#000000;fill-opacity:1;stroke:none;stroke-width:0.264583"
       x="110.12508"
       y="128.7404"
       id="text17054"><tspan
         sodipodi:role="line"
         id="tspan17052"
         style="stroke-width:0.264583"></tspan></text>
    <text
       xml:space="preserve"
       style="font-style:normal;font-weight:normal;font-size:2.11667px;line-height:1.25;font-family:sans-serif;fill:#ffffff;fill-opacity:1;stroke:none;stroke-width:0.264583"
       x="108.05799"
       y="144.75771"
       id="text3256-0"><tspan
         sodipodi:role="line"
         id="tspan3254-1"
         style="font-size:2.11667px;stroke-width:0.264583;fill:#ffffff"
         x="108.05799"
         y="144.75771">South Dunedin</tspan></text>
    <text
       xml:space="preserve"
       style="font-style:normal;font-weight:normal;font-size:10.5833px;line-height:1.25;font-family:sans-serif;fill:#000000;fill-opacity:1;stroke:none;stroke-width:0.264583"
       x="159.1657"
       y="120.34465"
       id="text35186"><tspan
         sodipodi:role="line"
         id="tspan35184"
         style="stroke-width:0.264583"></tspan></text>
    <text
       xml:space="preserve"
       style="font-style:normal;font-weight:normal;font-size:2.11666667px;line-height:1.25;font-family:sans-serif;fill:#ffffff;fill-opacity:1;stroke:none;stroke-width:0.264583"
       x="152.39801"
       y="118.5653"
       id="text3256-05"><tspan
         sodipodi:role="line"
         id="tspan3254-5"
         style="stroke-width:0.264583;font-size:2.11666667px;fill:#ffffff"
         x="152.39801"
         y="118.5653">Peninsula</tspan></text>
    <text
       xml:space="preserve"
       style="font-style:normal;font-weight:normal;font-size:2.11667px;line-height:1.25;font-family:sans-serif;fill:#ffffff;fill-opacity:1;stroke:none;stroke-width:0.264583"
       x="167.55219"
       y="78.715408"
       id="text3256-2"><tspan
         sodipodi:role="line"
         id="tspan3254-9"
         style="font-size:2.11667px;stroke-width:0.264583;fill:#ffffff"
         x="167.55219"
         y="78.715408">Port Chalmers</tspan></text>
    <text
       xml:space="preserve"
       style="font-style:normal;font-weight:normal;font-size:2.11667px;line-height:1.25;font-family:sans-serif;fill:#ffffff;fill-opacity:1;stroke:none;stroke-width:0.264583"
       x="43.512398"
       y="102.1015"
       id="text3256-5"><tspan
         sodipodi:role="line"
         id="tspan3254-4"
         style="font-size:2.11667px;stroke-width:0.264583;fill:#ffffff"
         x="43.512398"
         y="102.1015">North Taieri</tspan></text>
    <text
       xml:space="preserve"
       style="font-style:normal;font-weight:normal;font-size:2.11667px;line-height:1.25;font-family:sans-serif;fill:#ffffff;fill-opacity:1;stroke:none;stroke-width:0.264583"
       x="29.293659"
       y="124.17796"
       id="text3256-9"><tspan
         sodipodi:role="line"
         id="tspan3254-8"
         style="font-size:2.11667px;stroke-width:0.264583;fill:#ffffff"
         x="29.293659"
         y="124.17796">Mosgiel</tspan></text>
    <text
       xml:space="preserve"
       style="font-style:normal;font-weight:normal;font-size:2.11666667px;line-height:1.25;font-family:sans-serif;fill:#ffffff;fill-opacity:1;stroke:none;stroke-width:0.264583"
       x="27.422773"
       y="174.69189"
       id="text3256-95"><tspan
         sodipodi:role="line"
         id="tspan3254-88"
         style="stroke-width:0.264583;font-size:2.11666667px;fill:#ffffff"
         x="27.422773"
         y="174.69189">Brighton</tspan></text>
    <text
       xml:space="preserve"
       style="font-style:normal;font-weight:normal;font-size:10.5833px;line-height:1.25;font-family:sans-serif;fill:#000000;fill-opacity:1;stroke:none;stroke-width:0.264583"
       x="99.915375"
       y="116.76618"
       id="text58207"><tspan
         sodipodi:role="line"
         id="tspan58205"
         style="stroke-width:0.264583"></tspan></text>
    <text
       xml:space="preserve"
       style="font-style:normal;font-weight:normal;font-size:2.11667px;line-height:1.25;font-family:sans-serif;fill:#ffffff;fill-opacity:1;stroke:none;stroke-width:0.264583"
       x="95.710144"
       y="117.06859"
       id="text3256-4"><tspan
         sodipodi:role="line"
         id="tspan3254-92"
         style="font-size:2.11667px;stroke-width:0.264583;fill:#ffffff"
         x="95.710144"
         y="117.06859">Mount Grand</tspan></text>
    <text
       xml:space="preserve"
       style="font-style:normal;font-weight:normal;font-size:2.82222px;line-height:1.25;font-family:sans-serif;fill:#000000;fill-opacity:1;stroke:none;stroke-width:0.264583"
       x="102.63242"
       y="152.24126"
       id="text3256-6"><tspan
         sodipodi:role="line"
         id="tspan3254-14"
         style="font-size:2.82222px;stroke-width:0.264583"
         x="102.63242"
         y="152.24126" /></text>
    <text
       xml:space="preserve"
       style="font-style:normal;font-weight:normal;font-size:2.11667px;line-height:1.25;font-family:sans-serif;fill:#ffffff;fill-opacity:1;stroke:none;stroke-width:0.264583"
       x="112.54811"
       y="119.31364"
       id="text3256-67"><tspan
         sodipodi:role="line"
         id="tspan3254-7"
         style="font-size:2.11667px;stroke-width:0.264583;fill:#ffffff"
         x="112.54811"
         y="119.31364">North East Valley</tspan></text>
  </g>
</svg>
